<svg xmlns="http://www.w3.org/2000/svg" viewBox="0 0 284 184"><defs><style>.a{fill:#eee;}.b{fill:#e66465;}</style></defs><title>border-florid</title><path class="a" d="M137.47,121.74a17.38,17.38,0,0,0-.62-5c-4.2,4.42-7.21,9.13-13.84,9.71-5.49.48-12-4.87-12.42-10.38-.32-4.69,2.22-9.87,5.5-13,1.19-1.12,4.52-2.4,4.59-4.24.12-3-1.47-1.39-3-1.51-5.84-.44-12.27-.59-13.28-7.74-.48-3.44-.7-10.9,1.91-13.64,2.34-2.46,8.57-3.13,11.64-2.46,1.84.41,7.58,3.58,9.25,1.49,1.29-1.62-2.16-8.16-2.32-10.39a11.64,11.64,0,0,1,1-6c2.13-4.67,8-6.45,13.15-5.39a11.85,11.85,0,0,1,8.37,6.64c1.41,2.88.72,6.39,2.11,9.17a30.5,30.5,0,0,0,2.64-2.82c1.65-1.78,3.24-3.73,5.5-4.74,3.49-1.55,6-.7,9.17.79,4.63,2.22,8.77,6.43,7.73,12.11-.65,3.54-6.26,10.09-9.81,11,5.84,1.79,11.49,1.28,14.31,7.76,1.85,4.26.89,11-1.71,14.78-2,2.85-5,5.2-8.5,4.66-2.29-.35-1.66-.68-3.52-1.68s-.17-.67-3.22-1.27a35.68,35.68,0,0,1-4.66-.78c.09,3.24,4.3,5.1,5.43,8,1.85,4.75-2.29,9.33-5.91,11.86-3,2.09-8.27,2.67-12,2.22-2.47-.3-2.52-.53-4.22-2.5C138.09,125.38,137.47,125.92,137.47,121.74Zm-4.82-27.51c2.52,3.78,4.66,7.28,9.64,6.69,4.59-.53,7.38-2.47,7.77-7.31.31-3.76-4.35-8.86-8-9.41C136.84,83.43,133.29,89.94,132.65,94.23Z" transform="translate(0 0)"/><path class="b" d="M56.14,42.19l.19-.8C59,42.59,60.4,45.6,64,44.73c2.72-.67,4.86-3.94,5.56-6.46a13.14,13.14,0,0,0-2.8-12.4,12.55,12.55,0,0,0-9-4.22c-2.89-.21-5.68,0-8.56-.44-1.85-.29-4.17-1.13-6-1.13-.2,0,2.75,5,2.94,6,.72,3.63-1.31,6.56-4.33,8.16-5.64,3-10.3-.7-14.1-6.51S13.4,17.76,6.18,20.78C2.32,22.4.63,27.38,2.42,31.22c1.17,2.52,1.37,1.92,3.94,2.3,2.4.36,3.87.93,1.53,3C2.05,41.79-.22,30.14,0,26.52.36,21.21,2.41,17.29,5.58,13c7-9.55,20.3-14.12,31.67-12.77C43,.91,54.09,5.41,49.44,13.3c-1.34,2.29-3.67,2.19-5.45,3.62-1.4,1.14-1.79.18.19,1.27,4.41,2.46,10.74.52,15.53,1,1.35.15,4.84,1.53,5.13,1s-1.41-4.1-1.49-4.72c-.54-4,.55-7.81,3.67-10.26,1.56-1.22,6.6-3.47,5-.29-1,2-4,2.7-4.94,5.16-3.51,8.69,4.59,13.34,6.86,21,.41,1.39.46,3,1.25,4.28.53.86,2.94,2.1,2.36,3.3s-2.68,0-3.87.48-2.53,2.56-3.48,3.55c-1.94,2-3.79,3.56-6.49,4S56.14,45.78,56.14,42.19Z" transform="translate(0 0)"/><path class="b" d="M142.56,28.94c-6.22,12.54-24.25,11.82-35.77,8.21-3.18-1-5.73-1.66-8.61-3.57-2.16-1.42-5.53-3-7.37-4.72-1.12-1-1.21-2.49-2.13-3.4s-2.12-1.13-3-2.13c-2.1-2.53-2.61-6.24-2.84-9.34-.34-4.63.28-9.38,5-11.78,5.94-3,12.32,3.19,9.83,9.25-1.61,3.93-8.17,4.14-5.62-.39.52-.93,2.11-.27,2.67-1.79a3.63,3.63,0,0,0-.7-2.91c-1.71-2.06-5.39-1.31-7.1.31S85.58,10,85.7,12.19c.75,12.63,17.13,23.56,29.16,23.56,0-.68-4.75-3.8-5.35-4.59a52,52,0,0,1-4.67-7.42c-1.94-3.81-2.35-10.85-1.21-15,1.19-4.32,3.05-7.23,7.8-8.27,2.76-.61,7.59.26,8.73,3.41.48,1.33.93,5.78.06,6.14-1.6.64-1-.91-1.42-1.39a16.16,16.16,0,0,0-1-2c-3.43-7.88-11.9-.11-7.67,3.86,1.86,1.76,4.42,1.48,6.68,1.88,2.89.51,4.75,1.07,6.13,3.27,2,3.09,1.23,6.41-1.1,9.3-4,5-9.12.89-13.07-1.48.2,2.44,3.3,5.64,5,7.36,3,3.06,6.63,4.17,10.75,4.27a19.27,19.27,0,0,0,10.56-2.6,11.31,11.31,0,0,0,4.64-5.62c.35-.85,2-3.92,2-4.48-1.86-.12-3.85,2.9-6,3.29a6.06,6.06,0,0,1-6.28-3.44c-1.74-4.21-.5-17.1,6.35-12.62,1.92,1.25,2.87,4.71,4,1.39C141,7.11,135.81,4,141,.83c3.74-2.29,6.88.46,7.51,4.44.53,3.35-2,5.48-2,8.68,2.35-.49,3.4-4.32,5.69-5.09s3,1.22,4.41,2.49c1.62,1.45,2.62,1.83,2.65,3.91,0-.42-.82,2.13-.81,2.06-.25,1.54.25,3-.39,4.58a9,9,0,0,1-1.53,2.38c-3.92,5.16-7.11,1-11.62-.77-1.41,2.11,1.5,6.31,2.89,7.68,2.2,2.19,6,3.09,8.94,3.8,6.8,1.65,12.71-.62,15.48-7s-1-1.84-4.9-3.52C163.21,22.73,163,18,166,15c1.41-1.39,3.33-1.95,4.52-3.44,2.38-3,1.36-7.48-2.86-7.65-1.56-.06-3,.3-3.63,2s.69,2.25.69,3.7c0,3.58-2.74.72-3.5-1.41-2.28-6.37,7.34-8.36,11.41-6.5a14.62,14.62,0,0,1,7.3,19.08c-1.37,3.05-3,6.64-5.42,9.06-1.21,1.24-3.38,2.35-4,4-1.38,3.71,2.33.92,4.67.4,6.08-1.36,9.26-3.29,14.14-7.69,3.77-3.41,8.81-8.13,9.52-13.39s-6-10.3-8.74-4.17c-.69,1.56,1.82,8.22-2.38,5-3.84-3-1.17-9.16,1.92-11.46,5.65-4.2,11.08,3.59,11.53,8.84,1,11.49-10.4,19.36-19.49,23.62-6.63,3.11-13.49,5-21.11,4.43-4.42-.34-9.93-2-13.52-4.66C146.05,34.07,142.34,29.15,142.56,28.94Z" transform="translate(0 0)"/><path class="b" d="M39.44,73.53c1,4.33-2,9.92-4.66,13.52-.71,1-5.62,4.67-5.84,4.45C38,98.71,39.55,105,37.43,115.67c-.19,1-.85,3-1.68,3.52-.58.37-3.8,4.76-4.59,5.36a51,51,0,0,1-7.42,4.66c-3.81,1.95-10.85,2.35-15,1.22-4.32-1.19-7.22-3.05-8.27-7.8-.6-2.76.26-7.59,3.41-8.73,1.33-.49,5.79-.93,6.14-.06.64,1.59-.91,1-1.39,1.41a18.1,18.1,0,0,0-2,1c-7.88,3.43-.11,11.9,3.86,7.67,1.76-1.86,1.48-4.42,1.88-6.68.51-2.89,1.07-4.75,3.27-6.13,3.09-2,6.41-1.23,9.3,1.1,5,4,.89,9.12-1.48,13.06,2.44-.19,5.64-3.29,7.36-5,3.06-3,4.17-6.64,4.27-10.75A19.27,19.27,0,0,0,32.54,99a11.22,11.22,0,0,0-5.62-4.64c-.85-.35-3.92-2-4.48-2-.12,1.87,2.9,3.86,3.29,6a6.06,6.06,0,0,1-3.44,6.28c-4.21,1.74-17.1.5-12.62-6.35,1.25-1.92,4.71-2.87,1.39-4C7.11,93.06,4,98.24.83,93.05c-2.29-3.74.46-6.89,4.44-7.51,3.35-.53,5.48,2,8.68,2-.49-2.34-4.32-3.4-5.09-5.68s1.22-3,2.49-4.41c1.45-1.62,1.83-2.62,3.91-2.65-.42,0,2.13.82,2.06.81,1.54.24,3-.25,4.58.38a9.26,9.26,0,0,1,2.38,1.53c5.17,3.93,1,7.12-.77,11.63,2.11,1.4,6.31-1.51,7.69-2.89,2.18-2.2,3.08-6,3.79-8.95,1.65-6.79-.62-12.7-7-15.47s-1.84,1-3.51,4.9C22.73,70.85,18,71.06,15,68.1c-1.39-1.41-1.95-3.34-3.44-4.52-3-2.38-7.48-1.36-7.65,2.85-.06,1.57.3,3,2,3.63s2.25-.68,3.7-.68c3.58,0,.72,2.73-1.41,3.5C1.84,75.16-.15,65.54,1.72,61.47a14.6,14.6,0,0,1,19.07-7.3c3.05,1.37,6.65,3,9.06,5.41,1.24,1.22,5.12,3.55,6.49,4.72C38.5,66.15,38.83,70.75,39.44,73.53Z" transform="translate(0 0)"/><path class="b" d="M39.22,110.47c-.94-4.33,2-9.92,4.66-13.52.71-1,5.62-4.67,5.84-4.45C40.66,85.29,39.12,79,41.23,68.33c.19-1,.86-3,1.68-3.52.58-.37,3.8-4.76,4.59-5.36a51.57,51.57,0,0,1,7.42-4.66c3.81-1.95,10.85-2.35,15-1.22,4.32,1.19,7.22,3,8.26,7.8.61,2.76-.26,7.59-3.41,8.73-1.33.49-5.78.93-6.13.06-.65-1.59.91-1,1.38-1.41a18.08,18.08,0,0,0,2-1c7.87-3.43.1-11.9-3.87-7.67-1.76,1.86-1.48,4.42-1.88,6.68-.5,2.89-1.07,4.75-3.26,6.13-3.1,2-6.42,1.23-9.31-1.1-5-4-.88-9.12,1.48-13.06-2.43.19-5.63,3.29-7.35,5a14.73,14.73,0,0,0-4.27,10.75A19.18,19.18,0,0,0,46.13,85a11.24,11.24,0,0,0,5.61,4.64c.86.35,3.92,2,4.48,2,.13-1.87-2.89-3.86-3.29-6a6.06,6.06,0,0,1,3.45-6.28c4.2-1.74,17.09-.5,12.61,6.35-1.25,1.92-4.7,2.87-1.39,4,4,1.29,7.06-3.89,10.23,1.3,2.29,3.74-.46,6.89-4.43,7.51-3.35.53-5.49-2-8.69-2,.49,2.34,4.32,3.4,5.09,5.68s-1.22,3-2.48,4.41c-1.46,1.62-1.84,2.62-3.91,2.65.42,0-2.14-.82-2.07-.81-1.54-.24-3,.25-4.58-.38a9,9,0,0,1-2.37-1.53c-5.17-3.93-1-7.12.76-11.63-2.11-1.4-6.3,1.51-7.68,2.89-2.19,2.2-3.09,6-3.8,8.95-1.65,6.79.63,12.7,7,15.47s1.85-1,3.52-4.9c1.77-4.13,6.54-4.34,9.48-1.38,1.4,1.41,2,3.34,3.45,4.52,3,2.38,7.47,1.36,7.64-2.85.07-1.57-.3-3-2-3.63s-2.25.68-3.71.68c-3.58,0-.71-2.73,1.41-3.5,6.38-2.28,8.37,7.34,6.5,11.41a14.6,14.6,0,0,1-19.07,7.3c-3.06-1.37-6.65-3-9.07-5.41-1.24-1.22-5.11-3.55-6.48-4.72C40.17,117.85,39.83,113.25,39.22,110.47Z" transform="translate(0 0)"/><path class="b" d="M63.74,137.33c2.7.41,4.55,1.95,6.49,4,1,1,2.16,3,3.48,3.55s3.25-.78,3.87.48-1.83,2.44-2.36,3.3c-.79,1.28-.84,2.89-1.25,4.28-2.27,7.63-10.37,12.28-6.86,21,1,2.46,3.93,3.13,4.94,5.16,1.57,3.18-3.47.93-5-.29-3.12-2.45-4.21-6.26-3.67-10.26.08-.62,1.79-4.2,1.49-4.72s-3.78.88-5.13,1c-4.79.49-11.12-1.45-15.53,1-2,1.09-1.59.13-.19,1.27,1.78,1.43,4.11,1.33,5.45,3.62,4.65,7.89-6.48,12.39-12.19,13.07C25.88,185.12,12.62,180.55,5.58,171,2.41,166.71.36,162.79,0,157.48c-.24-3.62,2-15.27,7.87-10,2.34,2.1.87,2.67-1.53,3-2.57.38-2.77-.22-3.94,2.3-1.79,3.84-.1,8.82,3.76,10.44,7.22,3,17.7-1,21.54-6.9s8.46-9.47,14.1-6.51c3,1.6,5,4.53,4.33,8.16-.19,1-3.14,5.95-2.94,5.95,1.79,0,4.11-.84,6-1.13,2.88-.45,5.67-.23,8.56-.44a12.55,12.55,0,0,0,9-4.22,13.14,13.14,0,0,0,2.8-12.4c-.7-2.52-2.84-5.79-5.56-6.46-3.55-.87-4.93,2.14-7.62,3.34l-.19-.8C56.14,138.22,61,136.91,63.74,137.33Z" transform="translate(0 0)"/><path class="b" d="M227.86,141.81l-.19.8c-2.69-1.2-4.07-4.21-7.62-3.34-2.72.67-4.86,3.94-5.56,6.46a13.14,13.14,0,0,0,2.8,12.4,12.55,12.55,0,0,0,9,4.22c2.89.21,5.68,0,8.56.44,1.85.29,4.17,1.13,6,1.13.2,0-2.75-5-2.94-5.95-.72-3.63,1.31-6.56,4.33-8.16,5.64-3,10.3.7,14.1,6.51s14.32,9.92,21.54,6.9c3.86-1.62,5.55-6.6,3.76-10.44-1.17-2.52-1.37-1.92-3.94-2.3-2.4-.36-3.87-.93-1.53-3,5.84-5.24,8.11,6.41,7.87,10-.34,5.31-2.39,9.23-5.56,13.52-7,9.55-20.3,14.12-31.67,12.77-5.71-.68-16.84-5.18-12.19-13.07,1.34-2.29,3.67-2.19,5.45-3.62,1.4-1.14,1.79-.18-.19-1.27-4.41-2.46-10.74-.52-15.53-1-1.35-.15-4.84-1.53-5.13-1s1.41,4.1,1.49,4.72c.54,4-.55,7.81-3.67,10.26-1.56,1.22-6.6,3.47-5,.29,1-2,4-2.7,4.94-5.16,3.51-8.69-4.59-13.34-6.86-21-.41-1.39-.46-3-1.25-4.28-.53-.86-2.94-2.1-2.36-3.3s2.68,0,3.87-.48,2.53-2.56,3.48-3.55c1.94-2,3.79-3.56,6.49-4S227.86,138.22,227.86,141.81Z" transform="translate(0 0)"/><path class="b" d="M141.44,155.06c6.22-12.54,24.25-11.82,35.77-8.21,3.18,1,5.73,1.66,8.61,3.57,2.16,1.42,5.53,3,7.37,4.72,1.12,1,1.21,2.49,2.13,3.4s2.12,1.13,3,2.13c2.1,2.53,2.61,6.24,2.84,9.34.34,4.63-.28,9.38-5.05,11.78-5.94,3-12.32-3.19-9.83-9.25,1.61-3.93,8.17-4.14,5.62.39-.52.93-2.11.27-2.67,1.79a3.63,3.63,0,0,0,.7,2.91c1.71,2.06,5.39,1.31,7.1-.31s1.44-3.36,1.32-5.51c-.75-12.63-17.13-23.56-29.16-23.56,0,.68,4.75,3.8,5.35,4.59a52,52,0,0,1,4.67,7.42c1.94,3.81,2.35,10.85,1.21,15-1.19,4.32-3.05,7.23-7.8,8.27-2.76.61-7.59-.26-8.73-3.41-.48-1.33-.93-5.78-.06-6.14,1.6-.64,1,.91,1.42,1.39a16.16,16.16,0,0,0,1,2c3.43,7.88,11.9.11,7.67-3.86-1.86-1.76-4.42-1.48-6.68-1.88-2.89-.51-4.75-1.07-6.13-3.27-2-3.09-1.23-6.41,1.1-9.3,4-5,9.12-.89,13.07,1.48-.2-2.44-3.3-5.64-5-7.36-3-3.06-6.63-4.17-10.75-4.27a19.27,19.27,0,0,0-10.56,2.6,11.31,11.31,0,0,0-4.64,5.62c-.35.85-2,3.92-2,4.48,1.86.12,3.85-2.9,6-3.29a6.06,6.06,0,0,1,6.28,3.44c1.74,4.21.5,17.1-6.35,12.62-1.92-1.25-2.87-4.71-4-1.39-1.29,3.95,3.9,7.06-1.3,10.23-3.74,2.29-6.88-.46-7.51-4.44-.53-3.35,2-5.48,2-8.68-2.35.49-3.4,4.32-5.69,5.09s-3-1.22-4.41-2.49c-1.62-1.45-2.62-1.83-2.65-3.91,0,.42.82-2.13.81-2.06.25-1.54-.25-3,.39-4.58a9,9,0,0,1,1.53-2.38c3.92-5.16,7.11-1,11.62.77,1.41-2.11-1.5-6.31-2.89-7.68-2.2-2.19-6-3.09-8.94-3.8-6.8-1.65-12.71.62-15.48,7s1,1.84,4.9,3.52C120.79,161.27,121,166,118,169c-1.41,1.39-3.33,2-4.52,3.44-2.38,3-1.36,7.48,2.86,7.65,1.56.06,3-.3,3.63-2s-.69-2.25-.69-3.7c0-3.58,2.74-.72,3.5,1.41,2.28,6.37-7.34,8.36-11.41,6.5a14.62,14.62,0,0,1-7.3-19.08c1.37-3.05,3-6.64,5.42-9.06,1.21-1.24,3.38-2.35,4-4.05,1.38-3.71-2.33-.92-4.67-.4-6.08,1.36-9.26,3.29-14.14,7.69-3.77,3.41-8.81,8.13-9.52,13.39s6,10.3,8.74,4.17c.69-1.56-1.82-8.22,2.38-5,3.84,3,1.17,9.16-1.92,11.46-5.65,4.2-11.08-3.59-11.53-8.84-1-11.49,10.4-19.36,19.49-23.62,6.63-3.11,13.49-5,21.11-4.43,4.42.34,9.93,2,13.52,4.66C138,149.93,141.66,154.85,141.44,155.06Z" transform="translate(0 0)"/><path class="b" d="M244.56,110.47c-.95-4.33,2-9.92,4.66-13.52.71-1,5.62-4.67,5.84-4.45C246,85.29,244.45,79,246.57,68.33c.19-1,.85-3,1.68-3.52.58-.37,3.8-4.76,4.59-5.36a51,51,0,0,1,7.42-4.66c3.81-1.95,10.85-2.35,15-1.22,4.32,1.19,7.22,3,8.27,7.8.6,2.76-.26,7.59-3.41,8.73-1.33.49-5.79.93-6.14.06-.64-1.59.91-1,1.39-1.41a18.1,18.1,0,0,0,2-1c7.88-3.43.11-11.9-3.86-7.67-1.76,1.86-1.48,4.42-1.88,6.68-.51,2.89-1.07,4.75-3.27,6.13-3.09,2-6.41,1.23-9.3-1.1-5-4-.89-9.12,1.48-13.06-2.44.19-5.64,3.29-7.36,5-3.06,3-4.17,6.64-4.27,10.75A19.27,19.27,0,0,0,251.46,85a11.22,11.22,0,0,0,5.62,4.64c.85.35,3.92,2,4.48,2,.12-1.87-2.9-3.86-3.29-6a6.06,6.06,0,0,1,3.44-6.28c4.21-1.74,17.1-.5,12.62,6.35-1.25,1.92-4.71,2.87-1.39,4,3.95,1.29,7.06-3.89,10.23,1.3,2.29,3.74-.46,6.89-4.44,7.51-3.35.53-5.48-2-8.68-2,.49,2.34,4.32,3.4,5.09,5.68s-1.22,3-2.49,4.41c-1.45,1.62-1.83,2.62-3.91,2.65.42,0-2.13-.82-2.06-.81-1.54-.24-3,.25-4.58-.38a9.26,9.26,0,0,1-2.38-1.53c-5.17-3.93-1-7.12.77-11.63-2.11-1.4-6.31,1.51-7.69,2.89-2.18,2.2-3.08,6-3.79,8.95-1.65,6.79.62,12.7,7,15.47s1.84-1,3.51-4.9c1.78-4.13,6.54-4.34,9.49-1.38,1.39,1.41,1.95,3.34,3.44,4.52,3,2.38,7.48,1.36,7.65-2.85.06-1.57-.3-3-2-3.63s-2.25.68-3.7.68c-3.58,0-.72-2.73,1.41-3.5,6.37-2.28,8.36,7.34,6.49,11.41a14.6,14.6,0,0,1-19.07,7.3c-3-1.37-6.65-3-9.06-5.41-1.24-1.22-5.12-3.55-6.49-4.72C245.5,117.85,245.17,113.25,244.56,110.47Z" transform="translate(0 0)"/><path class="b" d="M244.78,73.53c.94,4.33-2,9.92-4.66,13.52-.71,1-5.62,4.67-5.84,4.45,9.06,7.21,10.6,13.51,8.49,24.17-.19,1-.86,3-1.68,3.52-.58.37-3.8,4.76-4.59,5.36a51.57,51.57,0,0,1-7.42,4.66c-3.81,1.95-10.85,2.35-15,1.22-4.32-1.19-7.22-3.05-8.26-7.8-.61-2.76.26-7.59,3.41-8.73,1.33-.49,5.78-.93,6.13-.06.65,1.59-.91,1-1.38,1.41a18.08,18.08,0,0,0-2,1c-7.87,3.43-.1,11.9,3.87,7.67,1.76-1.86,1.48-4.42,1.88-6.68.5-2.89,1.07-4.75,3.26-6.13,3.1-2,6.42-1.23,9.31,1.1,4.95,4,.88,9.12-1.48,13.06,2.43-.19,5.63-3.29,7.35-5a14.73,14.73,0,0,0,4.27-10.75A19.18,19.18,0,0,0,237.87,99a11.24,11.24,0,0,0-5.61-4.64c-.86-.35-3.92-2-4.48-2-.13,1.87,2.89,3.86,3.29,6a6.06,6.06,0,0,1-3.45,6.28c-4.2,1.74-17.09.5-12.61-6.35,1.25-1.92,4.7-2.87,1.39-4-4-1.29-7.06,3.89-10.23-1.3-2.29-3.74.46-6.89,4.43-7.51,3.35-.53,5.49,2,8.69,2-.49-2.34-4.32-3.4-5.09-5.68s1.22-3,2.48-4.41c1.46-1.62,1.84-2.62,3.91-2.65-.42,0,2.14.82,2.07.81,1.54.24,3-.25,4.58.38a9,9,0,0,1,2.37,1.53c5.17,3.93,1,7.12-.76,11.63,2.11,1.4,6.3-1.51,7.68-2.89,2.19-2.2,3.09-6,3.8-8.95,1.65-6.79-.63-12.7-7-15.47s-1.85,1-3.52,4.9c-1.77,4.13-6.54,4.34-9.48,1.38-1.4-1.41-2-3.34-3.45-4.52-3-2.38-7.47-1.36-7.64,2.85-.07,1.57.3,3,2,3.63s2.25-.68,3.71-.68c3.58,0,.71,2.73-1.41,3.5-6.38,2.28-8.37-7.34-6.5-11.41a14.6,14.6,0,0,1,19.07-7.3c3.06,1.37,6.65,3,9.07,5.41,1.24,1.22,5.11,3.55,6.48,4.72C243.83,66.15,244.17,70.75,244.78,73.53Z" transform="translate(0 0)"/><path class="b" d="M220.26,46.67c-2.7-.41-4.55-2-6.49-4-1-1-2.16-3-3.48-3.55s-3.25.78-3.87-.48,1.83-2.44,2.36-3.3c.79-1.28.84-2.89,1.25-4.28,2.27-7.63,10.37-12.28,6.86-21C215.9,7.66,213,7,212,5c-1.57-3.18,3.47-.93,5,.29,3.12,2.45,4.21,6.26,3.67,10.26-.08.62-1.79,4.2-1.49,4.72s3.78-.88,5.13-1c4.79-.49,11.12,1.45,15.53-1,2-1.09,1.59-.13.19-1.27-1.78-1.43-4.11-1.33-5.45-3.62C229.91,5.41,241,.91,246.75.23,258.12-1.12,271.38,3.45,278.42,13c3.17,4.29,5.22,8.21,5.56,13.52.24,3.62-2,15.27-7.87,10-2.34-2.1-.87-2.67,1.53-3,2.57-.38,2.77.22,3.94-2.3,1.79-3.84.1-8.82-3.76-10.44-7.22-3-17.7,1-21.54,6.9s-8.46,9.47-14.1,6.51c-3-1.6-5.05-4.53-4.33-8.16.19-1,3.14-6,2.94-6-1.79,0-4.11.84-6,1.13-2.88.45-5.67.23-8.56.44a12.55,12.55,0,0,0-9,4.22,13.14,13.14,0,0,0-2.8,12.4c.7,2.52,2.84,5.79,5.56,6.46,3.55.87,4.93-2.14,7.62-3.34l.19.8C227.86,45.78,223,47.09,220.26,46.67Z" transform="translate(0 0)"/></svg>
