<svg width="28" height="15" xmlns="http://www.w3.org/2000/svg"><g transform="rotate(90 15 10)"><path d="M9.9-.869c.671-.971 1.393-1.975 2.419-2.597 1.012.607 1.726 1.592 2.388 2.547 1.56 2.362 2.512 5.198 2.32 8.05.504.422 1.022.827 1.519 1.258a2.915 2.915 0 0 1 .873 2.626c-.239 1.2-.468 2.403-.721 3.599-.14.616-.974.897-1.463.504-.813-.678-1.606-1.382-2.418-2.06-.615.59-1.431.985-2.289 1.033-.986.07-1.963-.34-2.679-1.009-.583.447-1.123.982-1.693 1.46-.275.222-.504.512-.83.663-.505.217-1.155-.106-1.27-.65-.26-1.169-.531-2.337-.783-3.508a2.907 2.907 0 0 1 .921-2.735c.442-.37.89-.735 1.34-1.096.126-.066.063-.218.07-.33-.134-2.75.806-5.47 2.296-7.755zm.797 3.624c-.59.759-.518 1.935.166 2.613.724.798 2.096.827 2.853.061.585-.534.782-1.43.503-2.168a2.025 2.025 0 1 0-3.522-.507z" fill="#020202"/><path d="M9.618 15.537c-.01-.345.42-.582.71-.4a4.417 4.417 0 0 0 3.982 0c.282-.173.7.035.71.37.004.733.005 1.467.001 2.2.006.357-.467.585-.744.361-.212-.186-.402-.396-.606-.591-.321.626-.624 1.263-.949 1.888-.155.298-.642.3-.8.005-.327-.627-.628-1.267-.956-1.892-.2.197-.391.405-.602.592-.277.224-.748-.008-.744-.363-.006-.723-.002-1.447-.002-2.17z" fill="#020202"/><circle r=".988" cy="3.988" cx="12.304" fill="#020202"/></g></svg>
